<svg version="1.0" xmlns="http://www.w3.org/2000/svg" width="146.667" height="146.667" viewBox="0 0 110 110"><path d="M5 60v50h100V10H5v50zm98 0v48H7V12h96v48z"/><path d="M52.9 33.7c-.6 2.1-1.5 4.2-1.9 4.8-.4.5-1.1 2.1-1.5 3.5-.8 2.6-12.7 33.3-14.8 38.2-.6 1.5-2.2 3.2-3.4 3.9-4 2.2-2.5 2.9 5.8 2.9 5.1 0 7.8-.4 7.4-1-.3-.5-1.7-1-3.1-1-3.8 0-4.7-3.7-2.4-10.4 3.3-9.6 2.7-9.2 13-9.1 10.4 0 9.8-.5 13.5 10.4 2.4 7.2 2.1 9.1-1.7 9.1-1 0-1.8.4-1.8 1s3.9 1 9.8 1h9.7l-2.7-2.3c-1.6-1.3-3.8-5.1-5.4-9.2-1.4-3.9-3.2-8.4-3.9-10-.7-1.7-4.1-10.3-7.5-19.3-3.5-8.9-6.6-16.2-7.1-16.2-.4 0-1.3 1.7-2 3.7zm3.5 30.1c-2.4.2-6.4.2-8.8 0l-4.5-.3 3.5-9c6-15.8 5-15.6 9.9-2.5l4.3 11.5-4.4.3zM30 95.8c0 .4 11.3.8 25 .8 13.8 0 25-.3 25-.8 0-.4-11.2-.8-25-.8-13.7 0-25 .4-25 .8z"/></svg>