<svg version="1.0" xmlns="http://www.w3.org/2000/svg" width="93.333" height="93.333" viewBox="0 0 70 70"><path d="M0 35v35h70V0H0v35zm68 0v33H2V2h66v33z"/><path d="M27.5 32.3c-3.8 9.9-8 19.6-9.2 21.4L16.1 57l5.7-.1c5.2-.1 5.4-.2 3-1.2-3.3-1.3-3.5-3.2-1.1-10l1.7-4.8 7.4.3 7.4.3 1.9 5c2.3 5.9 2.1 9.1-.4 8.9-.9-.1-1.7.2-1.7.7 0 .5 3.2.9 7.2.9h7.1l-2-2.3C50.5 52.7 37 19.8 37 17.3c0-.6-.6-1.5-1.3-2.1-.9-.8-2.8 3-8.2 17.1zm6.5-8c0 .8 1.1 4.1 2.5 7.5 1.4 3.4 2.5 6.6 2.5 7.1 0 1.3-12 .9-12-.4-.1-1.8 5.4-15.5 6.2-15.5.5 0 .8.6.8 1.3zM16.7 63.8c1.4.9 36.1.7 37-.2.3-.3-8.1-.6-18.8-.6-10.7 0-18.9.4-18.2.8z"/></svg>