<?xml version="1.0" standalone="no"?>
<!DOCTYPE svg PUBLIC "-//W3C//DTD SVG 20010904//EN"
 "http://www.w3.org/TR/2001/REC-SVG-20010904/DTD/svg10.dtd">
<svg version="1.0" xmlns="http://www.w3.org/2000/svg"
 width="70.000000pt" height="70.000000pt" viewBox="0 0 70.000000 70.000000"
 preserveAspectRatio="xMidYMid meet">
<metadata>
Created by potrace 1.14, written by Peter Selinger 2001-2017
</metadata>
<g transform="translate(0.000000,70.000000) scale(0.100000,-0.100000)"
fill="#000000" stroke="none">
<path d="M0 350 l0 -350 350 0 350 0 0 350 0 350 -350 0 -350 0 0 -350z m680
0 l0 -330 -330 0 -330 0 0 330 0 330 330 0 330 0 0 -330z"/>
<path d="M275 377 c-38 -99 -80 -196 -92 -214 l-22 -33 57 1 c52 1 54 2 30 12
-33 13 -35 32 -11 100 l17 48 74 -3 74 -3 19 -50 c23 -59 21 -91 -4 -89 -9 1
-17 -2 -17 -7 0 -5 32 -9 72 -9 l71 0 -20 23 c-18 20 -153 349 -153 374 0 6
-6 15 -13 21 -9 8 -28 -30 -82 -171z m65 80 c0 -8 11 -41 25 -75 14 -34 25
-66 25 -71 0 -13 -120 -9 -120 4 -1 18 54 155 62 155 5 0 8 -6 8 -13z"/>
<path d="M167 62 c14 -9 361 -7 370 2 3 3 -81 6 -188 6 -107 0 -189 -4 -182
-8z"/>
</g>
</svg>
