<?xml version="1.0" standalone="no"?>
<!DOCTYPE svg PUBLIC "-//W3C//DTD SVG 20010904//EN"
 "http://www.w3.org/TR/2001/REC-SVG-20010904/DTD/svg10.dtd">
<svg version="1.0" xmlns="http://www.w3.org/2000/svg"
 width="110.000000pt" height="110.000000pt" viewBox="0 0 110.000000 110.000000"
 preserveAspectRatio="xMidYMid meet">
<metadata>
Created by potrace 1.14, written by Peter Selinger 2001-2017
</metadata>
<g transform="translate(0.000000,110.000000) scale(0.100000,-0.100000)"
fill="#000000" stroke="none">
<path d="M50 500 l0 -500 500 0 500 0 0 500 0 500 -500 0 -500 0 0 -500z m980
0 l0 -480 -480 0 -480 0 0 480 0 480 480 0 480 0 0 -480z"/>
<path d="M529 763 c-6 -21 -15 -42 -19 -48 -4 -5 -11 -21 -15 -35 -8 -26 -127
-333 -148 -382 -6 -15 -22 -32 -34 -39 -40 -22 -25 -29 58 -29 51 0 78 4 74
10 -3 5 -17 10 -31 10 -38 0 -47 37 -24 104 33 96 27 92 130 91 104 0 98 5
135 -104 24 -72 21 -91 -17 -91 -10 0 -18 -4 -18 -10 0 -6 39 -10 98 -10 l97
0 -27 23 c-16 13 -38 51 -54 92 -14 39 -32 84 -39 100 -7 17 -41 103 -75 193
-35 89 -66 162 -71 162 -4 0 -13 -17 -20 -37z m35 -301 c-24 -2 -64 -2 -88 0
l-45 3 35 90 c60 158 50 156 99 25 l43 -115 -44 -3z"/>
<path d="M300 142 c0 -4 113 -8 250 -8 138 0 250 3 250 8 0 4 -112 8 -250 8
-137 0 -250 -4 -250 -8z"/>
</g>
</svg>
